<?xml version="1.0" encoding="utf-8"?>
<!-- Generator: Adobe Illustrator 26.4.1, SVG Export Plug-In . SVG Version: 6.00 Build 0)  -->
<svg version="1.1" id="Слой_1" xmlns="http://www.w3.org/2000/svg" xmlns:xlink="http://www.w3.org/1999/xlink" x="0px" y="0px"
	 viewBox="0 0 100 100" style="enable-background:new 0 0 100 100;" xml:space="preserve">
<style type="text/css">
	.st0{fill-rule:evenodd;clip-rule:evenodd;fill:#FFFFFF;}
</style>
<path class="st0" d="M50,100c27.6,0,50-22.4,50-50S77.6,0,50,0S0,22.4,0,50S22.4,100,50,100z M33,24.1c1.5-0.4,2.8-0.6,5.8-0.9
	c0.9-0.1,1.7-0.1,6.3-0.1l5.2,0l0,0.4c0,0.2-0.1,2-0.3,4c-0.5,8.1-0.8,10-1.6,12.5c-0.4,1-1.2,2.7-1.8,3.5c-0.5,0.8-1.7,1.9-2.4,2.5
	c-2,1.6-4.6,2.5-8.4,3.2c-3.2,0.5-5.7,0.7-10.8,1c-0.9,0-1.7,0.1-1.8,0.1l-0.2,0l0-5.1l0-5.1l0.3-2.6c0.5-3.7,0.6-4.7,1.1-6.3
	c0.7-2.1,2-3.9,3.6-5C29.3,25.2,31.1,24.5,33,24.1z M51.2,29.6c-0.1-1.3-0.4-6.2-0.4-6.5c0-0.1,0.3-0.1,5-0.1c4.7,0,5,0,5.7,0.1
	c0.4,0.1,1.3,0.2,2,0.3c2.9,0.3,4.2,0.5,5.3,0.8c3.3,0.9,5.7,2.7,7,5.3c0.7,1.4,1,2.3,1.3,4.7c0.3,1.8,0.5,3.9,0.7,5.6
	C78,41.2,78,47.2,78,49l0,1.1l-0.6,0c-2.3-0.2-3.8-0.3-5.7-0.4c-6.3-0.4-8.8-0.7-11.1-1.6c-2-0.7-3.9-2-5.1-3.5
	c-1.1-1.2-2-2.8-2.6-4.4C52.1,37.9,51.5,34.5,51.2,29.6z M23,60.4v-4.9v-4.9l0.2,0c0.1,0,0.7,0,1.2,0.1c1.4,0.1,2.4,0.2,5.5,0.4
	c4.9,0.3,7.2,0.6,9,1.1c4.6,1.2,7.9,4.2,9.4,8.7c0.7,2,1.1,4.5,1.5,9.3c0.1,1.5,0.2,2,0.1,4.6c0,1.6,0,3,0,3
	c-0.1,0.1-9-0.3-12.3-0.5c-2-0.1-3.2-0.3-5.2-0.8c-1.6-0.4-2.6-0.8-3.4-1.2c-2.1-1.2-3.6-3.1-4.5-5.8c-0.5-1.4-0.7-2.8-1.2-6.8
	L23,60.4z M75.4,51c0.8-0.1,1.6-0.1,1.8-0.1c0.2,0,0.4,0,0.5,0l0.2,0l0,4c0,4.9-0.1,6.9-0.4,9.5c-0.3,2.1-0.7,4.5-1.2,5.8
	c-1.1,3-3.2,5.2-6.2,6.2c-1.5,0.5-4.2,1-6.7,1.3c-2.2,0.2-3.1,0.2-7.7,0.3l-4.7,0v-2.5c0-2.2,0-2.8,0.2-4.9c0.3-3.6,0.5-5.2,0.8-7
	c1.1-5.4,3.7-8.9,8.2-10.7c2.2-0.9,4.8-1.3,11.5-1.7C73,51.1,74.6,51,75.4,51z"/>
</svg>
