<?xml version="1.0" encoding="utf-8"?>
<!-- Generator: Adobe Illustrator 26.4.1, SVG Export Plug-In . SVG Version: 6.00 Build 0)  -->
<svg version="1.1" id="Слой_1" xmlns="http://www.w3.org/2000/svg" xmlns:xlink="http://www.w3.org/1999/xlink" x="0px" y="0px"
	 viewBox="0 0 100 100" style="enable-background:new 0 0 100 100;" xml:space="preserve">
<style type="text/css">
	.st0{fill:#FFFFFF;}
</style>
<path class="st0" d="M91.5,8.9c0,0,9.3-3.6,8.5,5.2c-0.3,3.6-2.6,16.2-4.4,29.9l-6.2,40.5c0,0-0.5,5.9-5.1,7
	c-4.6,1-11.6-3.6-12.8-4.6c-1-0.8-19.3-12.4-25.7-18c-1.8-1.5-3.9-4.6,0.3-8.2l27-25.8c3.1-3.1,6.2-10.3-6.7-1.5l-36,24.5
	c0,0-4.1,2.6-11.8,0.3L1.8,52.7c0,0-6.2-3.9,4.4-7.7C31.9,32.9,63.5,20.5,91.5,8.9z"/>
</svg>
