<?xml version="1.0" encoding="utf-8"?>
<!-- Generator: Adobe Illustrator 26.4.1, SVG Export Plug-In . SVG Version: 6.00 Build 0)  -->
<svg version="1.1" id="Слой_1" xmlns="http://www.w3.org/2000/svg" xmlns:xlink="http://www.w3.org/1999/xlink" x="0px" y="0px"
	 viewBox="0 0 100 100" style="enable-background:new 0 0 100 100;" xml:space="preserve">
<style type="text/css">
	.st0{fill-rule:evenodd;clip-rule:evenodd;fill:#FFFFFF;}
</style>
<path class="st0" d="M50,100c27.6,0,50-22.4,50-50S77.6,0,50,0S0,22.4,0,50S22.4,100,50,100z M69.5,28.8c-1.3-1.2-6.9-4.7-18.7-4.8
	c0,0-13.9-0.9-20.7,5.2c-3.8,3.7-5,9.2-5.2,16c0,0.2,0,0.5,0,0.7c-0.2,6.9-0.4,19,11.5,22.3c0,0,0,9.5-0.1,10.4c0,0.6,0.1,1,0.4,1.1
	c0.2,0.1,0.6-0.1,0.9-0.4c2-2,8.3-9.6,8.3-9.6c8.5,0.6,15.2-1.1,15.9-1.4c0.2-0.1,0.4-0.1,0.7-0.2h0c2.8-0.6,10.4-2.4,11.8-13.8
	C76.1,41.4,73.9,32.5,69.5,28.8z M48.7,31.5c0-0.5,0.4-0.9,0.9-0.9c4.6,0,8.5,1.6,11.6,4.6c3.1,3.1,4.7,7.2,4.7,12.4
	c0,0.5-0.4,0.9-0.9,0.9c-0.5,0-0.9-0.4-0.9-0.9c0-4.8-1.5-8.5-4.2-11.1c-2.8-2.7-6.2-4.1-10.3-4.1C49.1,32.4,48.7,32,48.7,31.5z
	 M51,34.4c-0.6,0-1.2,0.4-1.2,1.1c0,0.6,0.4,1.2,1.1,1.2c2.9,0.2,5.1,1.2,6.6,2.9c1.5,1.7,2.3,3.8,2.2,6.4c0,0.6,0.5,1.2,1.1,1.2
	c0.6,0,1.2-0.5,1.2-1.1c0.1-3.1-0.9-5.8-2.9-8l0,0C57.2,35.8,54.4,34.7,51,34.4z M52.2,38.9c-0.5,0-0.9,0.4-1,0.9s0.4,0.9,0.9,1
	c1.3,0.1,2.2,0.5,2.8,1.1c0.6,0.6,1,1.5,1,2.9c0,0.5,0.5,0.9,1,0.9c0.5,0,0.9-0.5,0.9-1c-0.1-1.7-0.6-3.1-1.5-4.1
	C55.2,39.5,53.8,39,52.2,38.9z M54,54.5c-0.6,0.7-1.7,0.6-1.7,0.6c-8.1-2.1-10.2-10.2-10.2-10.2s-0.1-1.1,0.6-1.7l1.5-1.2
	c0.7-0.6,1.2-1.9,0.4-3.2c-0.6-1-1.2-2-1.8-2.9c-0.6-0.9-2.1-2.7-2.1-2.7c-0.7-0.9-1.8-1-2.9-0.5c0,0,0,0,0,0c0,0,0,0,0,0
	c-1.1,0.6-2.1,1.5-3,2.4c0,0,0,0,0,0c0,0,0,0,0,0c-0.7,0.8-1.1,1.6-1.2,2.5c0,0.1,0,0.2,0,0.4c0,0.4,0.1,0.7,0.2,1l0,0
	c0.3,1.2,1.2,3.3,3.1,6.7c1.1,2,2.3,3.9,3.7,5.7c0.7,0.9,1.5,1.7,2.3,2.5l0,0l0,0c0,0,0,0,0.1,0.1l0.1,0.1l0.1,0.1l0.1,0.1
	c0.8,0.8,1.7,1.6,2.5,2.3c1.8,1.4,3.7,2.7,5.7,3.7c3.4,1.9,5.5,2.8,6.7,3.1l0,0c0.3,0.1,0.7,0.2,1,0.2c0.1,0,0.2,0,0.4,0
	c0.8-0.1,1.6-0.5,2.4-1.2c0,0,0,0,0,0c0,0,0,0,0,0c0,0,0,0,0,0c1-0.9,1.8-1.9,2.4-3c0,0,0,0,0,0l0,0v0c0,0,0,0,0,0
	c0.6-1.1,0.4-2.2-0.5-2.9c0,0-0.1-0.1-0.2-0.2c-0.5-0.4-1.8-1.5-2.5-2c-0.9-0.7-1.9-1.3-2.9-1.8c-1.3-0.7-2.7-0.3-3.2,0.4L54,54.5z"
	/>
</svg>
