<?xml version="1.0" encoding="utf-8"?>
<!-- Generator: Adobe Illustrator 26.4.1, SVG Export Plug-In . SVG Version: 6.00 Build 0)  -->
<svg version="1.1" id="Слой_1" xmlns="http://www.w3.org/2000/svg" xmlns:xlink="http://www.w3.org/1999/xlink" x="0px" y="0px"
	 viewBox="0 0 100 100" style="enable-background:new 0 0 100 100;" xml:space="preserve">
<style type="text/css">
	.st0{fill-rule:evenodd;clip-rule:evenodd;fill:#FFFFFF;}
</style>
<path class="st0" d="M50,100c27.6,0,50-22.4,50-50S77.6,0,50,0S0,22.4,0,50S22.4,100,50,100z M67.9,32.6c3.8,0.3,6,2.7,6.5,6.4
	c0.3,2.6,0.6,6.4,0.6,10.4c0,7.1-0.6,11.1-0.6,11.1c-0.6,3.7-2.4,5.8-6.2,6.2c-4.2,0.5-13.8,0.7-18,0.7c-4.4,0-13.2-0.2-17.7-0.6
	c-3.8-0.3-6.4-2.4-6.9-6.2c-0.4-2.8-0.6-6-0.6-11.2c0-5.8,0.2-8.2,0.7-10.9c0.7-3.7,2.5-5.5,6.5-6c4.3-0.4,8.3-0.7,17.3-0.7
	C54,32,63.5,32.2,67.9,32.6z M44.7,42.4v14.4l13.7-7.3L44.7,42.4z"/>
</svg>
