<svg width="156" height="33" viewBox="0 0 156 33" fill="none" xmlns="http://www.w3.org/2000/svg">
<g clip-path="url(#clip0)">
<path d="M90.6827 8.20683L77.9733 33H70.6321L74.3486 26.0565L68.7968 8.20683H75.7618L78.8634 18.9221L83.525 8.20683H90.6827ZM99.7215 27.965L102.025 13.0964H98.3083C97.2255 17.5679 97.1338 18.0859 96.9869 18.5949C95.95 23.1118 94.4909 27.8196 86.7735 28.474L85.7825 23.2572C87.9481 22.7937 88.9392 22.3211 89.8293 20.9215C90.3982 19.9945 91.0039 18.4495 92.3712 12.6238L93.4081 8.19774H109.366L106.31 27.9559H99.7215V27.965ZM129.031 27.965L133.876 8.20683H141.034L143.952 17.6224L149.174 8.20683H156.001V27.965H149.55L149.642 17.5679L143.805 27.965H140.841L137.547 17.6224L135.244 27.965H129.031ZM3.85494 1.7268C6.96576 0.372625 9.92976 0 13.1782 0C17.2251 0 22.2171 1.86312 22.3088 7.08896C22.3547 10.0245 21.1342 12.3057 17.8858 13.569C20.4276 14.4506 21.5563 16.8317 21.5563 19.2583C21.5563 25.8292 15.3898 28.4831 9.74623 28.4831C6.69046 28.4831 2.73541 27.7833 0.00999451 26.2473L1.04694 20.2853C3.58882 21.7304 6.26835 22.5665 9.37917 22.5665C11.6825 22.5665 14.0867 21.9121 14.0867 19.3492C14.0867 17.068 12.1138 16.7408 10.0399 16.7408H5.64435L6.4427 11.0515H10.3978C12.7469 11.0515 15.1971 10.6789 15.1512 8.02506C15.0594 5.8802 12.3248 5.69843 11.0126 5.69843C7.95682 5.73478 5.69023 6.38915 2.82717 8.06141L3.85494 1.7268ZM128.848 19.531H116.469C116.377 23.2118 119.102 23.6299 120.607 23.6299C123.241 23.6299 125.599 23.0664 127.902 21.8122L127.104 26.9835C124.562 28.2377 121.974 28.6194 119.194 28.6194C110.632 28.6194 109.641 22.5574 109.641 19.4855C109.687 12.9146 113.45 7.55246 120.653 7.55246C128.141 7.55246 129.738 13.7962 128.848 19.531ZM120.24 11.8876C117.652 11.8876 116.946 14.0779 116.615 16.2228H122.589C122.828 14.4506 122.828 11.8876 120.24 11.8876ZM36.6608 12.8147C36.3764 12.7238 35.9542 12.6783 35.6239 12.6783C31.7606 12.6783 29.5032 16.2682 29.5032 20.0854C29.4573 22.0848 30.3474 23.3481 31.8523 23.3481C32.9352 23.3481 33.9721 23.1573 35.1008 21.9031L36.6608 12.8147ZM43.9102 8.20683L40.8545 27.965H34.5043L34.8347 25.7747H34.6971C32.8618 28.1013 30.742 28.5285 29.1912 28.5285C25.0985 28.5285 22.7952 26.011 22.7952 20.9306C22.7952 12.2603 28.8608 7.65244 36.6792 7.65244C39.5789 7.64335 41.9281 7.92509 43.9102 8.20683ZM58.1154 5.54393L57.6933 8.1523C59.0147 7.68879 59.6203 7.64335 61.2721 7.64335C66.3559 7.64335 69.0813 10.997 69.0813 16.0319C69.0813 24.4205 63.6213 28.2922 57.2712 28.2922C56.1884 28.2922 55.0596 28.2013 54.6375 28.0559L53.8392 33H47.1587L49.9392 15.6139H49.8015C48.7646 16.3591 47.2138 18.4131 46.4154 19.6219C46.1309 20.0399 45.8465 20.2308 45.5253 20.0854L45.4335 20.0399C45.1032 19.8491 45.0114 19.4765 45.2408 18.8766C46.2319 16.4955 47.8745 13.3327 50.5081 11.2787L51.4533 5.54393H58.1154ZM56.9408 13.0964L55.3441 22.9755C55.858 23.1118 56.4728 23.1118 56.7114 23.1118C60.3361 23.1118 62.1714 19.8491 62.1255 16.45C62.0796 14.2597 60.9968 12.6783 58.8312 12.6783C57.886 12.6783 57.3171 12.8601 56.9408 13.0964Z" fill="white"/>
</g>
<defs>
<clipPath id="clip0">
<rect width="156" height="33" fill="white"/>
</clipPath>
</defs>
</svg>
